<svg xmlns="http://www.w3.org/2000/svg" width="1800" height="1100" viewBox="0 0 1800 1100">
    <rect width="1800" height="1100" fill="#F8FAFC"/>
    <rect width="1800" height="154" fill="#172554"/>
    <rect x="60" y="42" width="12" height="72" rx="6" fill="#F97316"/>
    <text x="96" y="62" font-size="18" fill="#93C5FD" font-weight="800">RESEARCH ARCHETYPE</text>
    <text x="96" y="106" font-size="36" fill="#FFFFFF" font-weight="800">User Persona</text>
    <text x="1740" text-anchor="end" y="92" font-size="20" fill="#BFDBFE" font-weight="600">TrackTruck · LogiGo</text>
    <g><rect x="60" y="220" width="520" height="750" rx="32" fill="#172554"/>
      <circle cx="320" cy="400" r="116" fill="#DBEAFE"/>
      <circle cx="320" cy="365" r="38" fill="#2563EB"/>
      <path d="M245 470c12-72 50-104 75-104s63 32 75 104" fill="#2563EB"/>
      <text x="320" text-anchor="middle" y="580" font-size="36" fill="#FFFFFF" font-weight="800">Carlos Mendoza</text>
      <text x="320" text-anchor="middle" y="624" font-size="21" fill="#BFDBFE" font-weight="600">Fleet Supervisor</text>
      <rect x="115" y="682" width="410" height="1" fill="#475569"/>
      <text x="115" y="732" font-size="16" fill="#93C5FD" font-weight="800">SEGMENT</text>
      <text x="115" y="772" font-size="21" fill="#FFFFFF" font-weight="600">Freight transportation</text>
<text x="115" y="802" font-size="21" fill="#FFFFFF" font-weight="600">companies</text>
      <rect x="115" y="855" width="410" height="1" fill="#475569"/>
      <text x="115" y="906" font-size="21" fill="#FED7AA" font-weight="700">“I need to know what is</text>
<text x="115" y="937" font-size="21" fill="#FED7AA" font-weight="700">happening now.”</text>
    </g>
    <g>
    <rect x="650" y="260" width="520" height="320" rx="24" fill="#FFFFFF" stroke="#CBD5E1" stroke-width="2"/>
    <rect x="650" y="260" width="520" height="64" rx="24" fill="#2563EB"/>
    <rect x="650" y="302" width="520" height="22" fill="#2563EB"/>
    <text x="678" y="302" font-size="20" fill="#FFFFFF" font-weight="800">OPERATING CONTEXT</text>
    <circle cx="682" cy="365" r="4" fill="#2563EB"/>
<text x="698" y="372" font-size="20" fill="#1E293B" font-weight="400">Coordinates vehicles, drivers and</text>
<text x="698" y="399" font-size="20" fill="#1E293B" font-weight="400">active trips</text>
<circle cx="682" cy="432" r="4" fill="#2563EB"/>
<text x="698" y="439" font-size="20" fill="#1E293B" font-weight="400">Works across desktop tools, phone</text>
<text x="698" y="466" font-size="20" fill="#1E293B" font-weight="400">calls and messaging</text>
<circle cx="682" cy="499" r="4" fill="#2563EB"/>
<text x="698" y="506" font-size="20" fill="#1E293B" font-weight="400">Needs evidence before, during and</text>
<text x="698" y="533" font-size="20" fill="#1E293B" font-weight="400">after each trip</text>
  </g>
<g>
    <rect x="1220" y="260" width="520" height="320" rx="24" fill="#FFFFFF" stroke="#CBD5E1" stroke-width="2"/>
    <rect x="1220" y="260" width="520" height="64" rx="24" fill="#F97316"/>
    <rect x="1220" y="302" width="520" height="22" fill="#F97316"/>
    <text x="1248" y="302" font-size="20" fill="#FFFFFF" font-weight="800">GOALS</text>
    <circle cx="1252" cy="365" r="4" fill="#F97316"/>
<text x="1268" y="372" font-size="20" fill="#1E293B" font-weight="400">Maintain real-time fleet visibility</text>
<circle cx="1252" cy="405" r="4" fill="#F97316"/>
<text x="1268" y="412" font-size="20" fill="#1E293B" font-weight="400">Detect route deviations and incidents</text>
<text x="1268" y="439" font-size="20" fill="#1E293B" font-weight="400">early</text>
<circle cx="1252" cy="472" r="4" fill="#F97316"/>
<text x="1268" y="479" font-size="20" fill="#1E293B" font-weight="400">Close trips with reliable traceability</text>
  </g>
<g>
    <rect x="650" y="650" width="520" height="320" rx="24" fill="#FFFFFF" stroke="#CBD5E1" stroke-width="2"/>
    <rect x="650" y="650" width="520" height="64" rx="24" fill="#F97316"/>
    <rect x="650" y="692" width="520" height="22" fill="#F97316"/>
    <text x="678" y="692" font-size="20" fill="#FFFFFF" font-weight="800">PAINS</text>
    <circle cx="682" cy="755" r="4" fill="#F97316"/>
<text x="698" y="762" font-size="20" fill="#1E293B" font-weight="400">Information fragmented across tools</text>
<circle cx="682" cy="795" r="4" fill="#F97316"/>
<text x="698" y="802" font-size="20" fill="#1E293B" font-weight="400">Repeated calls delay decisions</text>
<circle cx="682" cy="835" r="4" fill="#F97316"/>
<text x="698" y="842" font-size="20" fill="#1E293B" font-weight="400">Incomplete operation history</text>
  </g>
<g>
    <rect x="1220" y="650" width="520" height="320" rx="24" fill="#FFFFFF" stroke="#CBD5E1" stroke-width="2"/>
    <rect x="1220" y="650" width="520" height="64" rx="24" fill="#2563EB"/>
    <rect x="1220" y="692" width="520" height="22" fill="#2563EB"/>
    <text x="1248" y="692" font-size="20" fill="#FFFFFF" font-weight="800">BEHAVIOURS</text>
    <circle cx="1252" cy="755" r="4" fill="#2563EB"/>
<text x="1268" y="762" font-size="20" fill="#1E293B" font-weight="400">Checks vehicle and route status</text>
<circle cx="1252" cy="795" r="4" fill="#2563EB"/>
<text x="1268" y="802" font-size="20" fill="#1E293B" font-weight="400">Contacts drivers when data is unclear</text>
<circle cx="1252" cy="835" r="4" fill="#2563EB"/>
<text x="1268" y="842" font-size="20" fill="#1E293B" font-weight="400">Reconstructs events manually after</text>
<text x="1268" y="869" font-size="20" fill="#1E293B" font-weight="400">incidents</text>
  </g>
    <text x="650" y="1020" font-size="18" fill="#64748B" font-weight="600">Research status: hypothesis-based archetype · Validate and refine after interviews</text>
  </svg>